<svg xmlns="http://www.w3.org/2000/svg" viewBox="0 0 64 64">
  <rect width="64" height="64" rx="10" fill="#0e7490"/>
  <path d="M6 36 Q14 18 24 30 L24 38 Z" fill="#155e75"/>
  <path d="M58 36 Q50 18 40 30 L40 38 Z" fill="#155e75"/>
  <path d="M10 32 L24 32 L22 38 Z" fill="#0c4a6e"/>
  <path d="M54 32 L40 32 L42 38 Z" fill="#0c4a6e"/>
  <path d="M20 24 Q32 12 44 24 Q46 32 32 38 Q18 32 20 24 Z" fill="#f8fafc"/>
  <path d="M22 30 Q32 26 42 30 L42 36 Q32 40 22 36 Z" fill="#e2e8f0"/>
  <polygon points="28,34 36,34 32,52" fill="#f59e0b"/>
  <polygon points="29,40 35,40 32,44" fill="#b45309"/>
  <circle cx="27" cy="26" r="3" fill="#fde68a"/>
  <circle cx="27" cy="26" r="1.5" fill="#18181b"/>
  <circle cx="26.5" cy="25.5" r="0.5" fill="#fef3c7"/>
  <circle cx="37" cy="26" r="3" fill="#fde68a"/>
  <circle cx="37" cy="26" r="1.5" fill="#18181b"/>
  <circle cx="37.5" cy="25.5" r="0.5" fill="#fef3c7"/>
  <path d="M30 22 L34 20 L34 24 Z" fill="#cbd5e1"/>
</svg>
