<svg xmlns="http://www.w3.org/2000/svg" viewBox="0 0 64 64">
  <rect width="64" height="64" rx="10" fill="#ede9fe"/>
  <ellipse cx="11" cy="32" rx="9" ry="14" fill="#7c3aed"/>
  <ellipse cx="53" cy="32" rx="9" ry="14" fill="#7c3aed"/>
  <ellipse cx="13" cy="33" rx="4" ry="9" fill="#c4b5fd"/>
  <ellipse cx="51" cy="33" rx="4" ry="9" fill="#c4b5fd"/>
  <circle cx="32" cy="26" r="14" fill="#a78bfa"/>
  <path d="M32 38 Q30 50 38 54 Q48 58 46 46" fill="none" stroke="#7c3aed" stroke-width="6" stroke-linecap="round"/>
  <path d="M32 38 Q30 50 38 54 Q48 58 46 46" fill="none" stroke="#a78bfa" stroke-width="3" stroke-linecap="round"/>
  <circle cx="46" cy="46" r="1.2" fill="#5b21b6"/>
  <circle cx="27" cy="25" r="2" fill="#1e1b4b"/>
  <circle cx="37" cy="25" r="2" fill="#1e1b4b"/>
  <circle cx="27.6" cy="24.4" r="0.6" fill="#f5f3ff"/>
  <circle cx="37.6" cy="24.4" r="0.6" fill="#f5f3ff"/>
  <path d="M44 22 L48 20 M20 22 L16 20" stroke="#fef3c7" stroke-width="2" stroke-linecap="round"/>
</svg>
