<svg xmlns="http://www.w3.org/2000/svg" viewBox="0 0 64 64">
  <rect width="64" height="64" rx="10" fill="#fed7aa"/>
  <polygon points="12,26 20,8 26,26" fill="#ea580c"/>
  <polygon points="52,26 44,8 38,26" fill="#ea580c"/>
  <polygon points="16,24 20,14 22,24" fill="#fff7ed"/>
  <polygon points="48,24 44,14 42,24" fill="#fff7ed"/>
  <polygon points="12,26 32,22 52,26 46,44 32,54 18,44" fill="#ea580c"/>
  <polygon points="20,38 32,32 44,38 32,54" fill="#fff7ed"/>
  <polygon points="22,42 32,40 42,42 32,54" fill="#fed7aa"/>
  <polygon points="29,46 35,46 32,50" fill="#18181b"/>
  <ellipse cx="24" cy="30" rx="2" ry="2.5" fill="#18181b"/>
  <ellipse cx="40" cy="30" rx="2" ry="2.5" fill="#18181b"/>
  <circle cx="24.4" cy="29.4" r="0.6" fill="#fff7ed"/>
  <circle cx="40.4" cy="29.4" r="0.6" fill="#fff7ed"/>
</svg>
