<svg xmlns="http://www.w3.org/2000/svg" viewBox="0 0 64 64">
  <rect width="64" height="64" rx="10" fill="#fef3c7"/>
  <path d="M32 6 L36 16 L46 12 L42 22 L52 24 L44 32 L52 40 L42 42 L46 52 L36 48 L32 58 L28 48 L18 52 L22 42 L12 40 L20 32 L12 24 L22 22 L18 12 L28 16 Z" fill="#7c2d12"/>
  <circle cx="32" cy="32" r="14" fill="#f59e0b"/>
  <circle cx="32" cy="32" r="14" fill="none" stroke="#fbbf24" stroke-width="1.5" opacity="0.6"/>
  <ellipse cx="27" cy="30" rx="1.8" ry="2.2" fill="#18181b"/>
  <ellipse cx="37" cy="30" rx="1.8" ry="2.2" fill="#18181b"/>
  <ellipse cx="32" cy="37" rx="2.2" ry="1.5" fill="#18181b"/>
  <path d="M32 38.5 L32 41" stroke="#18181b" stroke-width="1.5" stroke-linecap="round"/>
  <path d="M30 41 Q32 43 34 41" stroke="#18181b" stroke-width="1.5" fill="none" stroke-linecap="round"/>
</svg>
