<svg xmlns="http://www.w3.org/2000/svg" viewBox="0 0 64 64">
  <rect width="64" height="64" rx="10" fill="#ecfccb"/>
  <ellipse cx="32" cy="14" rx="7" ry="6" fill="#65a30d"/>
  <circle cx="29" cy="13" r="1.2" fill="#18181b"/>
  <circle cx="35" cy="13" r="1.2" fill="#18181b"/>
  <circle cx="29.3" cy="12.7" r="0.4" fill="#ecfccb"/>
  <circle cx="35.3" cy="12.7" r="0.4" fill="#ecfccb"/>
  <ellipse cx="10" cy="40" rx="5" ry="4" fill="#65a30d"/>
  <ellipse cx="54" cy="40" rx="5" ry="4" fill="#65a30d"/>
  <ellipse cx="18" cy="54" rx="5" ry="4" fill="#65a30d"/>
  <ellipse cx="46" cy="54" rx="5" ry="4" fill="#65a30d"/>
  <polygon points="32,18 52,30 50,48 32,56 14,48 12,30" fill="#15803d"/>
  <polygon points="32,28 42,32 42,44 32,48 22,44 22,32" fill="#65a30d"/>
  <polygon points="32,34 36,36 36,42 32,44 28,42 28,36" fill="#86efac"/>
  <path d="M22 32 L32 28 M42 32 L32 28 M22 44 L32 48 M42 44 L32 48" stroke="#14532d" stroke-width="1.2" stroke-linecap="round"/>
</svg>
